<?xml version="1.0" standalone="no"?>
<!DOCTYPE svg PUBLIC "-//W3C//DTD SVG 1.1//EN" 
"http://www.w3.org/Graphics/SVG/1.1/DTD/svg11.dtd">

<svg width="512" height="512" viewBox="-1500 -1500 3000 3000" version="1.1"
xmlns="http://www.w3.org/2000/svg">

<rect x="-1500" y="-1500" width="3000" height="3000"
style="fill:SkyBlue;stroke-width:0;
stroke:SkyBlue"/>

<polygon points = "0,-1000 866,-500 866,500 0,1000 -866,500 -866,-500" 
style="fill:#bbbbbb;stroke:rgb(55,55,55);stroke-width:24"/>

<polygon points = "0,0 -866,-500 0,-1000 866,-500" 
style="fill:Yellow;stroke:rgb(55,55,55);stroke-width:24"/>
<polygon points = "0,0 866,-500 866,500 0,1000" 
style="fill:Green;stroke:rgb(55,55,55);stroke-width:24"/>
<polygon points = "0,0 0,1000 -866,500 -866,-500 -866,-500" 
style="fill:Red;stroke:rgb(55,55,55);stroke-width:24"/>

<line x1="0" y1="0" x2="-866" y2="-500"
style="stroke:rgb(55,55,55);stroke-width:24"/>
<line x1="0" y1="0" x2="866" y2="-500" 
style="stroke:rgb(55,55,55);stroke-width:24"/>
<line x1="0" y1="0" x2="0" y2="1000"
style="stroke:rgb(55,55,55);stroke-width:24"/>

<line x1="-288.7" y1="-166.7" x2="577.3" y2="-666.7"
style="stroke:rgb(55,55,55);stroke-width:24"/>
<line x1="-288.7" y1="-166.7" x2="-288.7" y2="833.3" 
style="stroke:rgb(55,55,55);stroke-width:24"/>

<line x1="288.7" y1="-166.7" x2="-577.3" y2="-666.7"
style="stroke:rgb(55,55,55);stroke-width:24"/>
<line x1="288.7" y1="-166.7" x2="288.7" y2="833.3" 
style="stroke:rgb(55,55,55);stroke-width:24"/>

<line x1="-577.3" y1="-333.3" x2="288.7" y2="-833.3"
style="stroke:rgb(55,55,55);stroke-width:24"/>
<line x1="-577.3" y1="-333.3" x2="-577.3" y2="666.7" 
style="stroke:rgb(55,55,55);stroke-width:24"/>

<line x1="577.3" y1="-333.3" x2="-288.7" y2="-833.3"
style="stroke:rgb(55,55,55);stroke-width:24"/>
<line x1="577.3" y1="-333.3" x2="577.3" y2="666.7" 
style="stroke:rgb(55,55,55);stroke-width:24"/>

<line x1="0" y1="333.3" x2="-866" y2="-166.6"
style="stroke:rgb(55,55,55);stroke-width:24"/>
<line x1="0" y1="333.3" x2="866" y2="-166.6" 
style="stroke:rgb(55,55,55);stroke-width:24"/>

<line x1="0" y1="666.7" x2="-866" y2="166.6"
style="stroke:rgb(55,55,55);stroke-width:24"/>
<line x1="0" y1="666.7" x2="866" y2="166.6" 
style="stroke:rgb(55,55,55);stroke-width:24"/>

</svg>
